<svg xmlns="http://www.w3.org/2000/svg" viewBox="0 0 128 128" width="128" height="128">
  <!-- Hair (Black spikes on top-left) -->
  <path d="M 56 20 C 36 6, 26 12, 28 22 C 34 22, 44 26, 52 24 Z" fill="#212121"/>
  <path d="M 52 30 C 28 20, 20 28, 24 38 C 30 36, 40 38, 48 34 Z" fill="#212121"/>
  <!-- Tail feathers -->
  <path d="M 12 108 C -2 108, -8 98, -4 92 C 4 96, 10 102, 12 108 Z" fill="#212121"/>
  <path d="M 14 114 C 0 118, -4 110, 2 104 C 8 106, 12 110, 14 114 Z" fill="#212121"/>
  <!-- Body (Yellow Triangle) -->
  <path d="M 64 8 L 118 108 C 118 114, 110 120, 104 120 L 24 120 C 18 120, 10 114, 10 108 Z" fill="#ffeb3b" stroke="#fbc02d" stroke-width="4"/>
  <!-- Belly (Peach/White arc at bottom) -->
  <path d="M 30 110 C 45 100, 83 100, 98 110 C 90 120, 38 120, 30 110 Z" fill="#ffe0b2"/>
  <!-- Eyes -->
  <!-- Left Eye -->
  <circle cx="50" cy="74" r="14" fill="#ffffff" stroke="#212121" stroke-width="2"/>
  <circle cx="54" cy="74" r="4" fill="#000000"/>
  <!-- Right Eye -->
  <circle cx="78" cy="74" r="14" fill="#ffffff" stroke="#212121" stroke-width="2"/>
  <circle cx="74" cy="74" r="4" fill="#000000"/>
  <!-- Eyebrows (Slanted, thick reddish-brown/black) -->
  <path d="M 34 56 L 62 68 L 94 56 L 90 50 L 62 62 L 38 50 Z" fill="#b71c1c"/>
  <!-- Beak (Long yellow/orange beak) -->
  <path d="M 64 72 L 36 90 Q 64 102 92 90 Z" fill="#ff9800" stroke="#f57c00" stroke-width="3"/>
  <path d="M 40 88 Q 64 90 88 88 C 84 102, 56 102, 40 88 Z" fill="#ffb74d" stroke="#f57c00" stroke-width="1.5"/>
</svg>
