<svg xmlns="http://www.w3.org/2000/svg" viewBox="0 0 128 128" width="128" height="128">
  <!-- Tail feathers -->
  <path d="M 12 70 C 0 72, -4 60, 0 52 C 8 56, 12 64, 12 70 Z" fill="#212121"/>
  <path d="M 10 78 C -2 84, -4 74, 2 68 C 8 70, 10 74, 10 78 Z" fill="#212121"/>
  <!-- Body (Red Circle) -->
  <circle cx="64" cy="64" r="54" fill="#e53935" stroke="#b71c1c" stroke-width="4"/>
  <!-- Belly (Light Peach/Cream Area at bottom) -->
  <path d="M 16 74 C 16 110, 112 110, 112 74 C 112 85, 96 112, 64 112 C 32 112, 16 85, 16 74 Z" fill="#ffe0b2"/>
  <!-- Feathers on top -->
  <path d="M 64 14 C 60 2, 48 -2, 40 10 C 42 22, 52 26, 60 22 Z" fill="#e53935" stroke="#b71c1c" stroke-width="2"/>
  <path d="M 72 18 C 74 6, 86 2, 92 14 C 86 26, 76 24, 72 18 Z" fill="#e53935" stroke="#b71c1c" stroke-width="2"/>
  <!-- Eyes -->
  <!-- Left Eye Background -->
  <circle cx="48" cy="54" r="16" fill="#ffffff" stroke="#212121" stroke-width="3"/>
  <!-- Right Eye Background -->
  <circle cx="80" cy="54" r="16" fill="#ffffff" stroke="#212121" stroke-width="3"/>
  <!-- Left Pupil -->
  <circle cx="52" cy="56" r="5" fill="#000000"/>
  <!-- Right Pupil -->
  <circle cx="76" cy="56" r="5" fill="#000000"/>
  <!-- Angry Eyebrows -->
  <path d="M 28 38 L 64 50 L 100 38 L 96 32 L 64 44 L 32 32 Z" fill="#212121"/>
  <!-- Beak -->
  <path d="M 64 52 L 42 72 Q 64 82 86 72 Z" fill="#ffb300" stroke="#ff8f00" stroke-width="3"/>
  <path d="M 45 70 Q 64 72 83 70 C 80 86, 48 86, 45 70 Z" fill="#ffa000" stroke="#ff8f00" stroke-width="2"/>
</svg>
