<svg xmlns="http://www.w3.org/2000/svg" viewBox="0 0 128 128" width="128" height="128">
  <!-- Fuse on top -->
  <rect x="60" y="4" width="8" height="16" rx="2" fill="#757575" stroke="#424242" stroke-width="2"/>
  <path d="M 64 4 Q 72 -2 68 -8 Q 60 -12 64 -16" fill="none" stroke="#ff8f00" stroke-width="3" stroke-linecap="round"/>
  <circle cx="64" cy="-16" r="3" fill="#ff5722"/>
  <!-- Body (Black Circle) -->
  <circle cx="64" cy="68" r="50" fill="#212121" stroke="#000000" stroke-width="4"/>
  <!-- Belly (Grey Area at bottom) -->
  <path d="M 22 80 C 22 110, 106 110, 106 80 C 106 90, 90 114, 64 114 C 38 114, 22 90, 22 80 Z" fill="#757575"/>
  <!-- Forehead spot (red feather dot) -->
  <circle cx="64" cy="36" r="8" fill="#e53935"/>
  <!-- Eyes -->
  <!-- Left Eye -->
  <circle cx="50" cy="58" r="13" fill="#ffffff" stroke="#212121" stroke-width="2"/>
  <circle cx="52" cy="58" r="4.5" fill="#000000"/>
  <!-- Right Eye -->
  <circle cx="78" cy="58" r="13" fill="#ffffff" stroke="#212121" stroke-width="2"/>
  <circle cx="76" cy="58" r="4.5" fill="#000000"/>
  <!-- Eyebrows (Thick, slanted, orange) -->
  <path d="M 34 42 L 62 50 L 94 42 L 90 36 L 62 44 L 38 36 Z" fill="#ffb74d"/>
  <!-- Beak (Yellow/Orange) -->
  <path d="M 64 58 L 44 76 Q 64 86 84 76 Z" fill="#ffa000" stroke="#f57c00" stroke-width="3"/>
  <path d="M 48 74 Q 64 76 80 74 C 77 86, 51 86, 48 74 Z" fill="#ffb74d" stroke="#f57c00" stroke-width="1.5"/>
</svg>
