<svg xmlns="http://www.w3.org/2000/svg" viewBox="0 0 64 128" width="64" height="128">
  <!-- Fork handle -->
  <rect x="26" y="60" width="12" height="68" rx="6" fill="#8d6e63" stroke="#4e342e" stroke-width="4"/>
  <!-- Wooden grain details -->
  <line x1="32" y1="70" x2="32" y2="110" stroke="#5d4037" stroke-width="2" stroke-linecap="round"/>
  <!-- Left prong -->
  <path d="M 26 64 C 20 60, 8 40, 8 16 C 8 8, 16 8, 16 16 C 16 32, 24 48, 32 52" fill="#8d6e63" stroke="#4e342e" stroke-width="4" stroke-linejoin="round"/>
  <!-- Right prong -->
  <path d="M 38 64 C 44 60, 56 40, 56 16 C 56 8, 48 8, 48 16 C 48 32, 40 48, 32 52" fill="#8d6e63" stroke="#4e342e" stroke-width="4" stroke-linejoin="round"/>
  <!-- Leather pouch or connectors details -->
  <rect x="4" y="10" width="8" height="10" rx="2" fill="#4e342e"/>
  <rect x="52" y="10" width="8" height="10" rx="2" fill="#4e342e"/>
</svg>
